<?xml version="1.0" encoding="utf-8"?>
<!-- Generator: Adobe Illustrator 21.1.0, SVG Export Plug-In . SVG Version: 6.00 Build 0)  -->
<svg version="1.1" id="Layer_1" xmlns="http://www.w3.org/2000/svg" xmlns:xlink="http://www.w3.org/1999/xlink" x="0px" y="0px"
	 viewBox="0 0 1080 1920" style="enable-background:new 0 0 1080 1920;" xml:space="preserve">
<style type="text/css">
	.st0{fill:#808080;}
	.st1{fill:#333333;}
	.st2{fill:#CCCCCC;}
	.st3{fill:#9EC3F5;stroke:#333333;stroke-width:12;stroke-miterlimit:10;}
	.st4{fill:none;stroke:#333333;stroke-width:12;stroke-miterlimit:10;}
	.st5{fill:#1A1A1A;}
</style>
<g id="Bottom">
	<polygon id="Base" points="775,1807 353,1807 465.1,1178.6 672.8,1178.6 	"/>
	<g id="midBody">
		<path class="st0" d="M672.6,1181.3c-78.7-1.6-128.9,1.6-207.6,0c-13.1-38.3-41.1-87.4-54.1-125.6c10.4-13.7,68-85.7,154.1-86.3
			c105.9-0.7,149.4,78.3,159.4,89"/>
		<path class="st1" d="M703.4,834.6c-33.1,9-82,14.8-136.5,14.8c-53.8,0-102.1-5.6-135.2-14.4c-27.9,36.3-44.7,83.8-44.7,135.9
			c0,32.4,6.5,63,18.2,90.2c29.6-30.2,90.9-50.9,161.8-50.9c71.7,0,133.6,21.3,162.8,52.1c11.9-27.5,18.7-58.5,18.7-91.3
			C748.4,918.6,731.4,871,703.4,834.6z"/>
		<rect id="Trim" x="366.5" y="922.9" class="st2" width="405.2" height="36.7"/>
	</g>
</g>
<ellipse id="Floor" class="st2" cx="562.5" cy="840" rx="211.5" ry="14.3"/>
<rect id="windowSill" x="423" y="749" class="st0" width="284.4" height="86.3"/>
<polygon id="Window" class="st3" points="715,750 413.5,750 360.3,564 763.7,564 "/>
<g id="WindowBars">
	<line class="st4" x1="451" y1="564" x2="484" y2="750"/>
	<line class="st4" x1="562" y1="564" x2="562" y2="750"/>
	<line class="st4" x1="633" y1="750" x2="666" y2="564"/>
</g>
<rect id="Roof" x="319" y="520" class="st5" width="476" height="44"/>
<g id="Antenna5">
	<path d="M366.1,456c0.2,5.3,0.4,10.7,0.6,16l0.5,16c0.1,5.3,0.5,10.7,0.3,16c-0.2,5.3-0.5,10.7-1.4,16h-0.3
		c-0.8-5.3-1.1-10.7-1.4-16c-0.2-5.3,0.2-10.7,0.3-16l0.5-16c0.2-5.3,0.4-10.7,0.6-16H366.1z"/>
</g>
<g id="Antenna4">
	<path d="M439.6,456.4l10.8,16.7l10.6,16.8c3.5,5.6,7.3,11.1,10.5,16.8c3.2,5.8,6.4,11.6,9.1,17.7l-0.3,0.2
		c-4.1-5.2-7.8-10.7-11.4-16.3c-3.6-5.6-6.7-11.4-10-17.2l-9.9-17.2l-9.7-17.3L439.6,456.4z"/>
</g>
<g id="Antenna3">
	<path d="M495.6,456.5l-3.2,17.1l-3.3,17.1c-1.1,5.7-2,11.4-3.5,17.1c-1.4,5.6-3,11.2-5.1,16.7l-0.3-0.1c0.4-5.8,1.4-11.6,2.4-17.3
		c1-5.7,2.7-11.3,4-16.9l4.2-16.9l4.3-16.9L495.6,456.5z"/>
</g>
<g id="Antenna2">
	<path d="M698.6,472.9L685,487.4l-13.7,14.4c-4.6,4.8-9,9.7-13.8,14.2c-4.8,4.5-9.7,9-15,13.1l-0.2-0.2c4.1-5.3,8.5-10.2,13.1-15
		c4.5-4.8,9.5-9.2,14.2-13.8l14.4-13.7l14.5-13.6L698.6,472.9z"/>
</g>
<g id="Antenna1">
	<path d="M639.6,482.6l13.8,10.7l13.7,10.8c4.5,3.6,9.2,7,13.6,10.9c4.3,3.9,8.6,7.8,12.5,12.2l-0.2,0.2c-5-3.1-9.7-6.5-14.2-10.1
		c-4.6-3.5-8.8-7.6-13.2-11.4l-13.1-11.5l-13-11.6L639.6,482.6z"/>
</g>
<g id="RadarPole">
	<line class="st4" x1="562.5" y1="373.5" x2="562.5" y2="519.5"/>
	<line class="st4" x1="508" y1="484" x2="620" y2="484"/>
	<line class="st4" x1="523" y1="447" x2="604" y2="447"/>
</g>
<path id="Radar" class="st1" d="M573.2,364.3c2-2.2,3.2-5.1,3.1-8.3c-0.2-6.6-5.7-11.9-12.3-11.7c-3.3,0.1-6.3,1.5-8.4,3.8
	c-33-31.7-58.9-65.7-76-97.2c-15.6,24.8,10,80.1,60.1,127.7c52.8,50.2,112.9,72.8,134.2,50.4C642.2,415.9,607.1,393.8,573.2,364.3z"
	/>
</svg>
